<?xml version="1.0" encoding="UTF-8"?>
<svg id="Layer_1" data-name="Layer 1" xmlns="http://www.w3.org/2000/svg" viewBox="0 0 1927.04 1327.47">
  <defs>
    <style>
      .cls-1, .cls-2 {
        stroke-width: 2px;
      }

      .cls-1, .cls-2, .cls-3, .cls-4, .cls-5 {
        stroke: #1d1d1b;
        stroke-miterlimit: 10;
      }

      .cls-1, .cls-4 {
        fill: #999b99;
      }

      .cls-6 {
        fill: #2ad2ff;
      }

      .cls-7 {
        font-family: Apple-Chancery, 'Apple Chancery';
        font-size: 48px;
      }

      .cls-2 {
        fill: #6d6f75;
      }

      .cls-3 {
        fill: #ffa02a;
      }

      .cls-8 {
        fill: #878787;
      }

      .cls-9 {
        fill: #8eff55;
      }

      .cls-10 {
        fill: #ffedaa;
      }

      .cls-11 {
        letter-spacing: 0em;
      }

      .cls-5 {
        fill: #ffcc2a;
        stroke-width: 4px;
      }
    </style>
  </defs>
  <polygon class="cls-9" points="820.02 1086.34 1927.04 1083.74 1927.04 3.74 2.01 2.01 4.04 1083.92 820.02 1086.34"/>
  <path class="cls-9" d="M1.67,440.28s323.99,64.21,385.68-101.59l1.27-2.1-7.18-3.18,1.8-3.34s-213.9-84.7-223.41-101.43c0,0-20.99,22.31-26.24,24.93s-49.86,26.57-41.01,59.38c0,0,.33,13.45-8.53,17.06s-26.57,4.26-61.02-6.89c0,0-19.68-10.5-20.01.66s-1.36,116.5-1.36,116.5Z"/>
  <path class="cls-9" d="M4.04,775.84l-.86-215.8s39.06,9.73,75.74-1.11,315.62-136.6,314.52-129.98c-1.11,6.62,41.66-73.11,41.66-73.11l21.31,8.93,3.74-8.01s71.68,11.25,270.83,99.45c0,0-61.25,215.6,157.15,275.1,0,0-34.93,75.05-36.49,126.54-1.56,51.49,20.34,9.45-53.65,225.39l-209.22.66s-19.69-39.83-31.44-41.5c0,0-4.54-5.06,2.87-17.47,7.41-12.41,72.58-91.93,72.58-91.93,0,0-3.56-20.13-34.45-45.23-30.89-25.1-105.94-80.56-196.31-40.07S4.04,775.84,4.04,775.84Z"/>
  <g id="Krukke_by" data-name="Krukke by">
    <circle class="cls-10" cx="933.84" cy="524.44" r="212.48"/>
    <polygon class="cls-8" points="858.5 575.35 861.08 575.35 861.25 566.15 843 565.82 825.08 566.15 824.27 568.89 826.05 569.37 826.53 572.44 840.53 572.44 840.64 569.22 857.7 569.22 858.5 575.35"/>
    <polygon class="cls-8" points="810.56 568.87 810.68 565.87 805.38 565.99 805.15 575.79 804.57 583.97 805.61 595.15 817.36 594.92 817.71 592.84 808.95 592.61 808.14 568.41 810.56 568.87"/>
    <polygon class="cls-8" points="828.93 595.22 834.3 595.22 834.57 592.4 827.78 592.13 827.52 593.37 828.93 595.22"/>
    <polygon class="cls-8" points="860.84 606.42 861.2 585.43 858.38 585.35 858.11 592.31 844.89 592.4 844.89 595.13 857.67 594.78 857.85 606.77 860.84 606.42"/>
    <polygon class="cls-8" points="805.45 641.66 808.37 641.57 808.46 638.27 811.39 638.36 811.67 630.63 811.11 618.75 807.52 617.9 807.71 616.39 804.98 616.58 805.07 622.71 805.45 641.66"/>
    <polygon class="cls-8" points="804.9 660.13 819.86 660.91 819.27 657.57 808.64 657.76 808.25 650.28 805.1 650.68 804.9 660.13"/>
    <polygon class="cls-8" points="824.59 660.72 836.99 660.72 836.79 657.96 824.98 657.96 824.59 660.72"/>
    <polygon class="cls-8" points="858.45 619.97 861.4 620.56 861.2 633.75 857.66 634.34 858.45 619.97"/>
    <polygon class="cls-8" points="858.45 644.77 861.4 644.77 861.01 655.8 857.07 655.2 858.45 644.77"/>
    <polygon class="cls-8" points="989.24 586.62 992.69 586.34 992.28 552.9 986.75 553.17 987.03 556.49 989.1 556.21 989.24 586.62"/>
    <polygon class="cls-8" points="949.44 595.6 952.9 595.18 953.17 581.92 955.38 581.78 955.38 579.57 953.03 579.29 952.48 571.28 949.58 571.83 949.44 595.6"/>
    <polygon class="cls-8" points="950.35 628.68 952.68 628.58 952.96 605.73 949.7 605.64 950.35 628.68"/>
    <polygon class="cls-8" points="952.96 644.84 953.05 638.25 950.26 638.25 949.89 647.91 964.47 647.91 964.57 646.33 966.61 646.14 966.89 642.98 975.16 642.98 975.62 646.51 971.63 646.42 971.72 648.28 978.04 648 977.95 641.78 963.92 641.68 963.82 644.75 952.96 644.84"/>
    <polygon class="cls-8" points="970.63 582.45 979.57 582.22 979.11 578.97 971.91 579.2 970.63 582.45"/>
    <polygon class="cls-8" points="971.33 555.51 981.55 555.39 981.31 552.72 971.79 552.96 971.33 555.51"/>
    <polygon class="cls-8" points="1017.2 541.56 1025.07 541.56 1023.76 539.02 1019.42 538.85 1019.26 532.84 1014.92 533.01 1017.2 541.56"/>
    <polygon class="cls-8" points="1042.63 542.47 1056.32 542.47 1054.72 539.76 1042.63 539.51 1042.63 542.47"/>
    <polygon class="cls-8" points="1082.1 507.44 1084.56 507.44 1084.56 500.17 1068.65 500.17 1068.65 502.88 1081.23 503.37 1082.1 507.44"/>
    <polygon class="cls-8" points="1050.03 503.37 1058.54 502.76 1058.42 500.17 1050.77 499.92 1050.03 503.37"/>
    <polygon class="cls-8" points="1019.44 500.54 1021.17 503.37 1041.4 502.63 1040.41 499.3 1019.44 500.54"/>
    <polygon class="cls-8" points="1016.75 520.3 1016.2 523.55 1018.87 523.44 1018.71 519.78 1016.75 520.3"/>
    <polygon class="cls-8" points="1013.78 411.28 1031.3 411.28 1032.22 407.99 1013.42 407.81 1013.78 411.28"/>
    <polygon class="cls-8" points="1041.52 410.55 1042.44 407.45 1053.75 407.45 1058.86 410.91 1041.52 410.55"/>
    <polygon class="cls-8" points="1081.12 432.26 1081.67 440.48 1084.96 439.75 1084.23 432.45 1081.12 432.26"/>
    <polygon class="cls-8" points="1081.93 447.16 1081.7 444.57 1084.75 445.04 1084.75 450.33 1075.11 450.68 1074.53 447.86 1081.93 447.16"/>
    <polygon class="cls-8" points="1065.71 450.68 1065.48 447.51 1044.44 447.28 1044.2 450.8 1065.71 450.68"/>
    <polygon class="cls-8" points="1022.81 450.45 1029.98 450.33 1028.22 446.57 1022.7 447.28 1022.81 450.45"/>
    <polygon class="cls-8" points="993.86 450.03 994.49 447.59 992.86 447.59 992.95 435.82 995.85 435.64 996.03 433.38 991.96 433.47 991.41 429.58 988.61 429.48 988.52 435.37 989.6 450.12 993.86 450.03"/>
    <polygon class="cls-8" points="872.76 425.49 887.83 424.85 887.58 421.24 874.7 421.63 872.76 425.49"/>
    <polygon class="cls-8" points="870.45 407.2 873.15 406.94 873.28 398.83 876.5 398.57 876.24 406.69 877.14 406.3 877.53 396.25 874.7 395.61 874.18 384.92 880.36 385.05 880.11 381.44 871.6 381.44 870.45 407.2"/>
    <polygon class="cls-8" points="891.31 384.27 913.47 384.92 913.34 382.21 892.47 381.57 891.31 384.27"/>
    <polygon class="cls-8" points="936.91 384.79 937.81 392.52 940.26 392 939.87 382.08 924.03 381.95 924.16 385.17 936.91 384.79"/>
    <polygon class="cls-8" points="937.17 401.28 940.13 401.02 940.13 405.27 937.04 405.27 937.17 401.28"/>
    <polygon class="cls-8" points="937.3 421.37 926.99 421.88 926.99 424.85 940.26 424.85 940.13 414.41 937.3 414.41 937.3 421.37"/>
    <polygon class="cls-8" points="781.89 513.13 781.55 509.91 778.44 510.35 778.88 516.92 784.89 516.58 785 513.36 781.89 513.13"/>
    <polygon class="cls-8" points="789.68 516.47 793.46 516.25 793.46 513.69 788.79 513.69 789.68 516.47"/>
    <polygon class="cls-8" points="798.91 516.58 810.6 516.36 810.6 513.36 798.91 513.47 798.91 516.58"/>
    <polygon class="cls-8" points="781.66 496.77 782.33 492.99 785.89 493.32 785.22 470.95 782 469.95 781.77 461.16 778.66 460.71 778.77 496.99 781.66 496.77"/>
    <polygon class="cls-8" points="831.3 425.47 834.91 424.75 834.55 421.5 798.47 421.32 798.47 424.21 800.45 424.21 800.27 428.18 814.16 428.54 814.16 424.39 831.3 425.47"/>
    <polygon class="cls-8" points="768.21 423.88 778.09 424.1 778.83 421.15 767.32 421.08 768.21 423.88"/>
    <polygon class="cls-8" points="790.31 431.67 791.52 434.09 797.59 433.81 797.13 430.55 790.31 431.67"/>
    <polygon class="cls-8" points="832 490.26 834.61 490.26 834.61 471.65 831.77 471.65 832 490.26"/>
    <polygon class="cls-8" points="831.71 501.58 832.06 517.76 835.93 516.7 834.7 499.65 831.71 501.58"/>
    <polygon class="cls-8" points="988.89 697.08 991.95 696.06 992.17 684.67 989.42 684.67 988.89 697.08"/>
    <polygon class="cls-8" points="989.55 666.48 992.17 665.7 992.3 661.77 1012.45 660.2 1012.98 658.89 989.68 658.24 989.55 666.48"/>
    <polygon class="cls-8" points="1028.68 662.29 1032.22 661.12 1031.69 672.37 1028.29 673.16 1028.68 662.29"/>
    <path class="cls-8" d="M997.47,625.3l.91,5.67-.91-5.67Z"/>
    <polygon class="cls-8" points="998.58 699.07 1020.44 699.33 1019.91 702.08 998.58 701.95 998.58 699.07"/>
    <polygon class="cls-8" points="885.84 501.11 911.71 501.7 911.71 504.27 886.04 504.47 885.84 501.11"/>
    <polygon class="cls-8" points="885.84 494.2 885.25 476.22 889.6 475.63 888.81 461.61 882.09 462.01 882.68 493.8 885.84 494.2"/>
    <polygon class="cls-8" points="899.05 462.24 912.44 462.1 912.16 489.17 909.85 489.46 909.13 465.12 899.05 464.83 899.05 462.24"/>
    <polygon class="cls-8" points="791.39 551.28 791.54 555.84 814.78 556 814.01 550.95 791.39 551.28"/>
    <text class="cls-7" transform="translate(828.04 372.16)"><tspan x="0" y="0">Krukkeby</tspan></text>
  </g>
  <g id="MArken">
    <path class="cls-5" d="M2.01,2.01l587.21,3.21s-165.02,38.58-192.88,107.16-203.6,43.93-228.24,97.51-83.58,53.58-78.22,100.73-87.45-4.05-87.04,8.85S2.01,2.01,2.01,2.01Z"/>
    <text class="cls-7" transform="translate(46.13 95.73)"><tspan x="0" y="0">Marken</tspan></text>
    <path d="M87.66,190.24c1.93,0,1.93-3,0-3s-1.93,3,0,3h0Z"/>
    <path d="M233.72,129.3c1.93,0,1.93-3,0-3s-1.93,3,0,3h0Z"/>
    <path d="M308.33,79.91c1.93,0,1.93-3,0-3s-1.93,3,0,3h0Z"/>
    <path d="M248.43,43.13c1.93,0,1.93-3,0-3s-1.93,3,0,3h0Z"/>
    <path d="M158.06,153.47c1.93,0,1.93-3,0-3s-1.93,3,0,3h0Z"/>
    <path d="M75.05,225.97c1.93,0,1.93-3,0-3s-1.93,3,0,3h0Z"/>
    <path d="M15.15,151.36c1.93,0,1.93-3,0-3s-1.93,3,0,3h0Z"/>
    <path d="M26.71,32.62c1.93,0,1.93-3,0-3s-1.93,3,0,3h0Z"/>
    <path d="M92.91,34.72c1.93,0,1.93-3,0-3s-1.93,3,0,3h0Z"/>
    <path d="M77.15,171.33c1.93,0,1.93-3,0-3s-1.93,3,0,3h0Z"/>
    <path d="M52.98,234.38c1.93,0,1.93-3,0-3s-1.93,3,0,3h0Z"/>
    <path d="M24.61,261.7c1.93,0,1.93-3,0-3s-1.93,3,0,3h0Z"/>
    <path d="M375.58,53.64c1.93,0,1.93-3,0-3s-1.93,3,0,3h0Z"/>
    <path d="M429.18,24.21c1.93,0,1.93-3,0-3s-1.93,3,0,3h0Z"/>
    <path d="M338.8,134.55c1.93,0,1.93-3,0-3s-1.93,3,0,3h0Z"/>
    <path d="M292.57,63.09c1.93,0,1.93-3,0-3s-1.93,3,0,3h0Z"/>
    <path d="M194.84,42.08c1.93,0,1.93-3,0-3s-1.93,3,0,3h0Z"/>
    <path d="M148.61,26.32c1.93,0,1.93-3,0-3s-1.93,3,0,3h0Z"/>
    <path d="M309.38,27.37c1.93,0,1.93-3,0-3s-1.93,3,0,3h0Z"/>
  </g>
  <g id="Orkaløb">
    <path class="cls-6" d="M1.67,440.28s252.94,42.55,335.67-40.19,127.65-224.57,193.84-231.66S786.47-4.13,831.39,2.96l68.32-.41s-120.54,70.82-125.06,103.97-212.45,129.58-238.07,132.6-143.14,186.84-143.14,189.85S81.53,563.06,58.93,563.06s-57.26,4.52-55.75-3.01-1.52-119.77-1.52-119.77Z"/>
    <text class="cls-7" transform="translate(93.14 517.75) rotate(-10.89)"><tspan x="0" y="0">Orkaløb</tspan></text>
  </g>
  <path class="cls-10" d="M794.98,1080.22s55.68-120.15,54.22-178.77,26.38-171.44,43.96-172.9,16.5,7.81,16.5,7.81c0,0-41.26,142.27-38.41,166.46s-45.53,180.69-51.22,183.53-25.05-6.13-25.05-6.13Z"/>
  <path class="cls-10" d="M177.68,205.99s196.86,108.2,299.79,127.92c102.93,19.72,293.68,93.1,292.01,113.94-1.67,20.84-17.64,16.2-17.64,16.2,0,0-239.05-99.63-282.06-105.18-43.02-5.55-305.25-118.59-308.86-126.2-3.61-7.61,16.76-26.68,16.76-26.68Z"/>
  <path class="cls-10" d="M908.15,315.51s-6.56-264.49,72.13-275.42S1181.38-5.82,1233.84,2.93l26.25,2.37s-262.39,51.06-266.65,55.32-47.51-25.88-71.63,256.72l-13.67-1.83Z"/>
  <polygon class="cls-8" points="456.4 364.78 381.44 333.48 394.92 308.11 470.72 335.18 456.4 364.78"/>
  <g id="Stenbruddet">
    <path class="cls-1" d="M4.04,1083.92v-308.08s291.73,111.91,407.42,67.9,226.34,74.19,221.31,89.28-91.79,98.08-75.45,109.4,31.44,41.5,31.44,41.5H4.04Z"/>
    <path class="cls-2" d="M101.97,976.31s9.51,21.67,15.86,21.14c6.34-.53,29.6-5.29,37-3.7s7.4-22.73,14.8-23.26c0,0-13.21-16.91-12.68-18.5s-24.84,6.87-29.07,6.87-20.08-.53-20.08-3.17-3.17,17.97-5.81,20.61Z"/>
    <path class="cls-2" d="M290.39,936.25s3.01,6.86,5.02,6.7,9.38-1.67,11.72-1.17,2.34-7.2,4.69-7.37c0,0-4.19-5.36-4.02-5.86s-7.87,2.18-9.21,2.18-6.36-.17-6.36-1-1,5.69-1.84,6.53Z"/>
    <path class="cls-2" d="M394,1011.07s-10.45,21.24-5.96,25.75c4.49,4.51,23.11,19.24,26.66,25.92s22.15-8.98,27.32-3.66c0,0,4.43-21,5.98-21.62s-21.26-14.58-23.98-17.81-12.53-15.7-10.51-17.41-15.79,9.15-19.51,8.83Z"/>
    <path class="cls-2" d="M223.5,991.87s-2.46,5.01-1.41,6.07,5.45,4.54,6.29,6.11,5.23-2.12,6.45-.86c0,0,1.04-4.95,1.41-5.1s-5.01-3.44-5.66-4.2-2.96-3.7-2.48-4.11-3.72,2.16-4.6,2.08Z"/>
    <path class="cls-2" d="M230.94,935.58s13.89,29.91,21.36,29.91-29.91,7.48-29.91,10.68-14.95,3.2-18.16-6.41-1.07-28.84-11.75-41.66,30.98-4.27,38.45,7.48Z"/>
    <path class="cls-2" d="M149.42,883.92s-4.46,15.17-1.58,18.06-13.99-9.08-15.04-8.03-6.82-4.72-4.9-9.11,9.06-9.88,9.14-18.21,13.35,10.54,12.38,17.29Z"/>
    <path class="cls-2" d="M314.63,965.83s-1.32,5.52-.19,6.65-5.38-3.67-5.74-3.3-2.63-1.89-2.01-3.48,3.14-3.46,2.99-6.54,5.17,4.19,4.96,6.67Z"/>
    <path class="cls-2" d="M374.32,992.09s-20.48,4.26-21.16,8.29-2.08-16.95-4.14-17.3-.7-8.42,5.77-9.11,18.63,2.55,27.84-1.83c9.21-4.38-.07,17.18-8.3,19.95Z"/>
    <path class="cls-2" d="M287.71,1034.12s18.48,2.64,20.68,1.32,10.56-11,10.12-13.2-.44-14.08-7.04-13.64-27.28,8.36-31.68,10.12,7.92,15.4,7.92,15.4Z"/>
    <path class="cls-2" d="M48.56,859.65s-3.06,9.77-2.54,11.08,5.02,6.68,6.25,6.64,7.66,1,8-2.61-2.12-15.5-2.69-18.04-9.03,2.93-9.03,2.93Z"/>
    <text class="cls-7" transform="translate(186.25 904.6)"><tspan x="0" y="0">S</tspan><tspan class="cls-11" x="25.22" y="0">t</tspan><tspan x="41.86" y="0">enbruddet</tspan></text>
  </g>
  <g id="Den_gamle_mølle" data-name="Den gamle mølle">
    <polygon class="cls-4" points="407.79 305.03 427.79 274.85 432.46 267.8 427.1 265.02 414.96 287.18 411.02 285.66 403.73 298.71 407.79 305.03"/>
    <polygon class="cls-3" points="434.28 278.06 427.79 274.85 412.25 298.32 417.22 301.69 434.28 278.06"/>
    <line class="cls-3" x1="429.7" y1="284.17" x2="424.1" y2="280.4"/>
    <line class="cls-3" x1="424.96" y1="291.47" x2="419.72" y2="287.82"/>
    <line class="cls-3" x1="415.83" y1="293.54" x2="420.33" y2="297.07"/>
    <line class="cls-3" x1="414" y1="296.95" x2="418.26" y2="300.12"/>
    <line class="cls-3" x1="426.9" y1="276.99" x2="431.77" y2="280.89"/>
    <text class="cls-7" transform="translate(281.58 249.21)"><tspan x="0" y="0">Den gamle mølle</tspan></text>
  </g>
</svg>